# Blender v2.92.0 OBJ File: 'level.blend'
# www.blender.org
mtllib coin.mtl
v -0.225520 0.020188 0.000000
v -0.202968 0.020188 -0.041323
v -0.157864 0.020188 -0.041323
v -0.135312 0.020188 0.000000
v -0.157864 0.020188 0.041323
v -0.202968 0.020188 0.041323
v -0.217836 0.078557 0.000000
v -0.196052 0.072720 -0.041323
v -0.152485 0.061046 -0.041323
v -0.130702 0.055209 0.000000
v -0.152485 0.061046 0.041323
v -0.196052 0.072720 0.041323
v -0.195306 0.132948 0.000000
v -0.175776 0.121672 -0.041323
v -0.136714 0.099120 -0.041323
v -0.117184 0.087844 0.000000
v -0.136714 0.099120 0.041323
v -0.175776 0.121672 0.041323
v -0.159467 0.179655 0.000000
v -0.143520 0.163708 -0.041323
v -0.111627 0.131815 -0.041323
v -0.095680 0.115868 0.000000
v -0.111627 0.131815 0.041323
v -0.143520 0.163708 0.041323
v -0.112760 0.215495 0.000000
v -0.101484 0.195964 -0.041323
v -0.078932 0.156903 -0.041323
v -0.067656 0.137372 0.000000
v -0.078932 0.156903 0.041323
v -0.101484 0.195964 0.041323
v -0.058369 0.238024 0.000000
v -0.052532 0.216241 -0.041323
v -0.040858 0.172673 -0.041323
v -0.035021 0.150890 0.000000
v -0.040858 0.172673 0.041323
v -0.052532 0.216241 0.041323
v -0.000000 0.245709 0.000000
v -0.000000 0.223157 -0.041323
v -0.000000 0.178052 -0.041323
v -0.000000 0.155500 0.000000
v -0.000000 0.178052 0.041323
v -0.000000 0.223157 0.041323
v 0.058369 0.238024 0.000000
v 0.052532 0.216241 -0.041323
v 0.040858 0.172673 -0.041323
v 0.035021 0.150890 0.000000
v 0.040858 0.172673 0.041323
v 0.052532 0.216241 0.041323
v 0.112760 0.215495 0.000000
v 0.101484 0.195964 -0.041323
v 0.078932 0.156903 -0.041323
v 0.067656 0.137372 0.000000
v 0.078932 0.156903 0.041323
v 0.101484 0.195964 0.041323
v 0.159467 0.179655 0.000000
v 0.143520 0.163708 -0.041323
v 0.111627 0.131815 -0.041323
v 0.095680 0.115868 0.000000
v 0.111627 0.131815 0.041323
v 0.143520 0.163708 0.041323
v 0.195306 0.132948 0.000000
v 0.175776 0.121672 -0.041323
v 0.136714 0.099120 -0.041323
v 0.117184 0.087844 0.000000
v 0.136714 0.099120 0.041323
v 0.175776 0.121672 0.041323
v 0.217836 0.078557 0.000000
v 0.196052 0.072720 -0.041323
v 0.152485 0.061046 -0.041323
v 0.130702 0.055209 0.000000
v 0.152485 0.061046 0.041323
v 0.196052 0.072720 0.041323
v 0.225520 0.020188 0.000000
v 0.202968 0.020188 -0.041323
v 0.157864 0.020188 -0.041323
v 0.135312 0.020188 0.000000
v 0.157864 0.020188 0.041323
v 0.202968 0.020188 0.041323
v 0.217836 -0.038181 0.000000
v 0.196052 -0.032344 -0.041323
v 0.152485 -0.020670 -0.041323
v 0.130702 -0.014833 0.000000
v 0.152485 -0.020670 0.041323
v 0.196052 -0.032344 0.041323
v 0.195306 -0.092572 0.000000
v 0.175776 -0.081296 -0.041323
v 0.136715 -0.058744 -0.041323
v 0.117184 -0.047468 0.000000
v 0.136715 -0.058744 0.041323
v 0.175776 -0.081296 0.041323
v 0.159467 -0.139279 0.000000
v 0.143520 -0.123332 -0.041323
v 0.111627 -0.091439 -0.041323
v 0.095680 -0.075492 0.000000
v 0.111627 -0.091439 0.041323
v 0.143520 -0.123332 0.041323
v 0.112760 -0.175118 0.000000
v 0.101484 -0.155588 -0.041323
v 0.078932 -0.116526 -0.041323
v 0.067656 -0.096996 0.000000
v 0.078932 -0.116526 0.041323
v 0.101484 -0.155588 0.041323
v 0.058369 -0.197648 0.000000
v 0.052532 -0.175864 -0.041323
v 0.040858 -0.132297 -0.041323
v 0.035021 -0.110514 0.000000
v 0.040858 -0.132297 0.041323
v 0.052532 -0.175864 0.041323
v -0.000000 -0.205332 0.000000
v -0.000000 -0.182780 -0.041323
v -0.000000 -0.137676 -0.041323
v -0.000000 -0.115124 0.000000
v -0.000000 -0.137676 0.041323
v -0.000000 -0.182780 0.041323
v -0.058369 -0.197648 0.000000
v -0.052532 -0.175864 -0.041323
v -0.040858 -0.132297 -0.041323
v -0.035021 -0.110514 0.000000
v -0.040858 -0.132297 0.041323
v -0.052532 -0.175864 0.041323
v -0.112760 -0.175118 0.000000
v -0.101484 -0.155588 -0.041323
v -0.078932 -0.116526 -0.041323
v -0.067656 -0.096996 0.000000
v -0.078932 -0.116526 0.041323
v -0.101484 -0.155588 0.041323
v -0.159467 -0.139279 0.000000
v -0.143520 -0.123332 -0.041323
v -0.111627 -0.091439 -0.041323
v -0.095680 -0.075492 0.000000
v -0.111627 -0.091439 0.041323
v -0.143520 -0.123332 0.041323
v -0.195306 -0.092572 0.000000
v -0.175776 -0.081296 -0.041323
v -0.136714 -0.058744 -0.041323
v -0.117184 -0.047468 0.000000
v -0.136714 -0.058744 0.041323
v -0.175776 -0.081296 0.041323
v -0.217836 -0.038181 0.000000
v -0.196052 -0.032344 -0.041323
v -0.152485 -0.020670 -0.041323
v -0.130702 -0.014833 0.000000
v -0.152485 -0.020670 0.041323
v -0.196052 -0.032344 0.041323
vt 0.819902 0.681159
vt 0.819902 0.682098
vt 0.819667 0.682098
vt 0.819667 0.681159
vt 0.819432 0.684915
vt 0.819432 0.683976
vt 0.819667 0.683976
vt 0.819667 0.679281
vt 0.819667 0.680220
vt 0.819902 0.680220
vt 0.819902 0.679281
vt 0.819667 0.684915
vt 0.819902 0.683976
vt 0.819902 0.683037
vt 0.819667 0.683037
vt 0.818728 0.680220
vt 0.818728 0.681159
vt 0.818493 0.681159
vt 0.818493 0.680220
vt 0.818963 0.684915
vt 0.818963 0.683976
vt 0.819198 0.683976
vt 0.819198 0.679281
vt 0.820137 0.680220
vt 0.819902 0.684915
vt 0.820137 0.679281
vt 0.819432 0.683037
vt 0.820137 0.683037
vt 0.820137 0.683976
vt 0.822015 0.682098
vt 0.822015 0.681159
vt 0.822249 0.681159
vt 0.822249 0.682098
vt 0.819432 0.681159
vt 0.819432 0.680220
vt 0.819432 0.682098
vt 0.819198 0.682098
vt 0.819198 0.681159
vt 0.819198 0.680220
vt 0.819198 0.683037
vt 0.818963 0.683037
vt 0.818728 0.683976
vt 0.818728 0.683037
vt 0.819432 0.679281
vt 0.819198 0.684915
vt 0.818493 0.684915
vt 0.818493 0.683976
vt 0.818728 0.679281
vt 0.818963 0.682098
vt 0.818963 0.681159
vt 0.818963 0.680220
vt 0.818728 0.682098
vt 0.821076 0.682098
vt 0.821076 0.681159
vt 0.821310 0.681159
vt 0.821310 0.682098
vt 0.818493 0.683037
vt 0.818259 0.683976
vt 0.818259 0.683037
vt 0.818963 0.679281
vt 0.818728 0.684915
vt 0.818024 0.684915
vt 0.818024 0.683976
vt 0.818259 0.679281
vt 0.818493 0.682098
vt 0.818259 0.682098
vt 0.818259 0.681159
vt 0.822484 0.682098
vt 0.822484 0.681159
vt 0.817085 0.681159
vt 0.822719 0.682098
vt 0.818259 0.680220
vt 0.818024 0.683037
vt 0.817789 0.683976
vt 0.817789 0.683037
vt 0.818493 0.679281
vt 0.818259 0.684915
vt 0.817554 0.684915
vt 0.817554 0.683976
vt 0.817789 0.679281
vt 0.818024 0.682098
vt 0.818024 0.681159
vt 0.818024 0.680220
vt 0.817789 0.682098
vt 0.817789 0.681159
vt 0.817320 0.681159
vt 0.817320 0.682098
vt 0.822249 0.680220
vt 0.822484 0.680220
vt 0.817789 0.680220
vt 0.817320 0.683976
vt 0.817320 0.683037
vt 0.817554 0.683037
vt 0.818024 0.679281
vt 0.817789 0.684915
vt 0.817554 0.682098
vt 0.817554 0.681159
vt 0.817554 0.680220
vt 0.817320 0.680220
vt 0.822719 0.683976
vt 0.817085 0.683037
vt 0.817320 0.684915
vt 0.817554 0.679281
vt 0.820606 0.682098
vt 0.820606 0.683037
vt 0.820371 0.683037
vt 0.820371 0.682098
vt 0.821545 0.682098
vt 0.821545 0.681159
vt 0.821780 0.681159
vt 0.821780 0.682098
vt 0.822484 0.683037
vt 0.817085 0.682098
vt 0.822719 0.683037
vt 0.817085 0.680220
vt 0.822719 0.681159
vt 0.820137 0.681159
vt 0.822719 0.680220
vt 0.817085 0.684915
vt 0.817320 0.679281
vt 0.822719 0.684915
vt 0.817085 0.683976
vt 0.821780 0.683976
vt 0.821780 0.683037
vt 0.822015 0.683037
vt 0.822015 0.683976
vt 0.821780 0.680220
vt 0.822015 0.680220
vt 0.822484 0.684915
vt 0.817085 0.679281
vt 0.822484 0.683976
vt 0.822719 0.679281
vt 0.822249 0.683037
vt 0.822249 0.684915
vt 0.822484 0.679281
vt 0.822249 0.683976
vt 0.821310 0.683976
vt 0.821310 0.683037
vt 0.821545 0.683037
vt 0.821545 0.683976
vt 0.821310 0.680220
vt 0.821545 0.680220
vt 0.822015 0.684915
vt 0.822249 0.679281
vt 0.821780 0.684915
vt 0.822015 0.679281
vt 0.820841 0.683976
vt 0.820841 0.683037
vt 0.821076 0.683037
vt 0.821076 0.683976
vt 0.820841 0.681159
vt 0.820841 0.680220
vt 0.821076 0.680220
vt 0.821545 0.684915
vt 0.821780 0.679281
vt 0.821310 0.684915
vt 0.821545 0.679281
vt 0.820606 0.683976
vt 0.820371 0.683976
vt 0.820371 0.681159
vt 0.820371 0.680220
vt 0.820606 0.680220
vt 0.820606 0.681159
vt 0.821076 0.684915
vt 0.821310 0.679281
vt 0.820841 0.682098
vt 0.820841 0.684915
vt 0.821076 0.679281
vt 0.820137 0.682098
vt 0.820606 0.684915
vt 0.820841 0.679281
vt 0.820371 0.684915
vt 0.820606 0.679281
vt 0.820371 0.679281
vt 0.820137 0.684915
vn -0.8720 0.1148 -0.4759
vn 0.8126 -0.3366 0.4759
vn -0.0000 -0.0000 -1.0000
vn 0.8720 -0.1148 -0.4759
vn 0.8720 -0.1148 0.4759
vn 0.0000 0.0000 1.0000
vn 0.5354 -0.6978 0.4759
vn 0.8720 0.1148 -0.4759
vn 0.6978 -0.5354 -0.4759
vn -0.8126 0.3366 0.4759
vn -0.6978 0.5354 -0.4759
vn -0.6978 0.5354 0.4759
vn 0.6978 -0.5354 0.4759
vn 0.1148 -0.8720 0.4759
vn -0.5354 0.6978 -0.4759
vn 0.5354 -0.6978 -0.4759
vn -0.3366 0.8126 -0.4759
vn -0.1148 -0.8720 -0.4759
vn -0.5354 0.6978 0.4759
vn -0.3366 0.8126 0.4759
vn 0.3366 -0.8126 -0.4759
vn 0.3366 -0.8126 0.4759
vn -0.3366 -0.8126 0.4759
vn -0.1148 0.8720 -0.4759
vn 0.1148 -0.8720 -0.4759
vn 0.1148 0.8720 -0.4759
vn -0.1148 0.8720 0.4759
vn 0.1148 0.8720 0.4759
vn -0.1148 -0.8720 0.4759
vn -0.6978 -0.5354 0.4759
vn 0.3366 0.8126 -0.4759
vn -0.3366 -0.8126 -0.4759
vn 0.5354 0.6978 -0.4759
vn 0.3366 0.8126 0.4759
vn 0.5354 0.6978 0.4759
vn -0.5354 -0.6978 -0.4759
vn -0.5354 -0.6978 0.4759
vn 0.6978 0.5354 -0.4759
vn -0.6978 -0.5354 -0.4759
vn 0.8126 0.3366 -0.4759
vn 0.6978 0.5354 0.4759
vn 0.8126 0.3366 0.4759
vn -0.8126 -0.3366 -0.4759
vn -0.8126 -0.3366 0.4759
vn 0.8720 0.1148 0.4759
vn -0.8720 -0.1148 -0.4759
vn -0.8720 -0.1148 0.4759
vn -0.8720 0.1148 0.4759
vn 0.8126 -0.3366 -0.4759
vn -0.8126 0.3366 -0.4759
usemtl None
s off
f 2/1/1 1/2/1 7/3/1 8/4/1
f 16/5/2 17/6/2 11/7/2 10/8/2
f 8/4/3 9/9/3 3/10/3 2/1/3
f 4/11/4 3/10/4 9/9/4 10/12/4
f 10/12/5 11/7/5 5/13/5 4/11/5
f 6/14/6 5/13/6 11/7/6 12/15/6
f 33/16/3 32/17/3 38/18/3 39/19/3
f 28/20/7 29/21/7 23/22/7 22/23/7
f 141/24/8 3/10/8 4/25/8 142/26/8
f 12/15/6 11/7/6 17/6/6 18/27/6
f 144/28/6 143/29/6 5/13/6 6/14/6
f 91/30/9 92/31/9 86/32/9 85/33/9
f 9/9/3 8/4/3 14/34/3 15/35/3
f 7/3/10 12/15/10 18/27/10 13/36/10
f 14/34/11 13/36/11 19/37/11 20/38/11
f 15/35/3 14/34/3 20/38/3 21/39/3
f 24/40/12 19/37/12 13/36/12 18/27/12
f 30/41/6 29/21/6 35/42/6 36/43/6
f 16/44/9 15/35/9 21/39/9 22/45/9
f 17/6/13 16/44/13 22/45/13 23/22/13
f 40/46/14 41/47/14 35/42/14 34/48/14
f 20/38/15 19/37/15 25/49/15 26/50/15
f 27/51/16 28/20/16 22/23/16 21/39/16
f 26/50/17 25/49/17 31/52/17 32/17/17
f 115/53/18 116/54/18 110/55/18 109/56/18
f 24/40/6 23/22/6 29/21/6 30/41/6
f 19/37/19 24/40/19 30/41/19 25/49/19
f 27/51/3 26/50/3 32/17/3 33/16/3
f 36/43/20 31/52/20 25/49/20 30/41/20
f 42/57/6 41/47/6 47/58/6 48/59/6
f 28/60/21 27/51/21 33/16/21 34/61/21
f 29/21/22 28/60/22 34/61/22 35/42/22
f 52/62/23 53/63/23 47/58/23 46/64/23
f 32/17/24 31/52/24 37/65/24 38/18/24
f 39/19/25 40/46/25 34/48/25 33/16/25
f 38/18/26 37/65/26 43/66/26 44/67/26
f 79/68/4 80/69/4 74/70/4 73/71/4
f 36/43/6 35/42/6 41/47/6 42/57/6
f 31/52/27 36/43/27 42/57/27 37/65/27
f 39/19/3 38/18/3 44/67/3 45/72/3
f 48/59/28 43/66/28 37/65/28 42/57/28
f 54/73/6 53/63/6 59/74/6 60/75/6
f 40/76/18 39/19/18 45/72/18 46/77/18
f 41/47/29 40/76/29 46/77/29 47/58/29
f 64/78/30 65/79/30 59/74/30 58/80/30
f 44/67/31 43/66/31 49/81/31 50/82/31
f 51/83/32 52/62/32 46/64/32 45/72/32
f 50/82/33 49/81/33 55/84/33 56/85/33
f 73/71/8 74/70/8 68/86/8 67/87/8
f 48/59/6 47/58/6 53/63/6 54/73/6
f 43/66/34 48/59/34 54/73/34 49/81/34
f 86/32/3 87/88/3 81/89/3 80/69/3
f 51/83/3 50/82/3 56/85/3 57/90/3
f 60/75/35 55/84/35 49/81/35 54/73/35
f 71/91/6 72/92/6 66/93/6 65/79/6
f 52/94/36 51/83/36 57/90/36 58/95/36
f 53/63/37 52/94/37 58/95/37 59/74/37
f 56/85/38 55/84/38 61/96/38 62/97/38
f 63/98/39 64/78/39 58/80/39 57/90/39
f 62/97/40 61/96/40 67/87/40 68/86/40
f 66/93/6 60/75/6 59/74/6 65/79/6
f 55/84/41 60/75/41 66/93/41 61/96/41
f 63/98/3 62/97/3 68/86/3 69/99/3
f 72/92/42 67/87/42 61/96/42 66/93/42
f 77/100/6 78/101/6 72/92/6 71/91/6
f 69/99/43 70/102/43 64/103/43 63/98/43
f 70/102/44 71/91/44 65/79/44 64/103/44
f 127/104/30 132/105/30 138/106/30 133/107/30
f 103/108/21 104/109/21 98/110/21 97/111/21
f 84/112/5 79/68/5 73/113/5 78/114/5
f 80/69/3 81/89/3 75/115/3 74/116/3
f 78/114/45 73/113/45 67/87/45 72/92/45
f 2/1/3 3/10/3 141/24/3 140/117/3
f 75/118/46 76/119/46 70/120/46 69/99/46
f 76/121/47 77/122/47 71/91/47 70/120/47
f 101/123/6 102/124/6 96/125/6 95/126/6
f 98/110/3 99/127/3 93/128/3 92/31/3
f 81/89/1 82/129/1 76/130/1 75/118/1
f 82/129/48 83/131/48 77/122/48 76/132/48
f 83/131/6 84/112/6 78/101/6 77/100/6
f 85/33/49 86/32/49 80/69/49 79/68/49
f 96/125/13 91/30/13 85/33/13 90/133/13
f 92/31/3 93/128/3 87/88/3 86/32/3
f 90/133/2 85/33/2 79/68/2 84/112/2
f 87/88/50 88/134/50 82/135/50 81/89/50
f 88/134/10 89/136/10 83/131/10 82/135/10
f 113/137/6 114/138/6 108/139/6 107/140/6
f 110/55/3 111/141/3 105/142/3 104/109/3
f 93/128/11 94/143/11 88/144/11 87/88/11
f 94/143/12 95/126/12 89/136/12 88/144/12
f 95/126/6 96/125/6 90/133/6 89/136/6
f 97/111/16 98/110/16 92/31/16 91/30/16
f 108/139/22 103/108/22 97/111/22 102/124/22
f 104/109/3 105/142/3 99/127/3 98/110/3
f 102/124/7 97/111/7 91/30/7 96/125/7
f 99/127/15 100/145/15 94/146/15 93/128/15
f 100/145/19 101/123/19 95/126/19 94/146/19
f 125/147/6 126/148/6 120/149/6 119/150/6
f 122/151/3 123/152/3 117/153/3 116/54/3
f 105/142/17 106/154/17 100/155/17 99/127/17
f 106/154/20 107/140/20 101/123/20 100/155/20
f 107/140/6 108/139/6 102/124/6 101/123/6
f 109/56/25 110/55/25 104/109/25 103/108/25
f 120/149/29 115/53/29 109/56/29 114/138/29
f 116/54/3 117/153/3 111/141/3 110/55/3
f 114/138/14 109/56/14 103/108/14 108/139/14
f 111/141/24 112/156/24 106/157/24 105/142/24
f 112/156/27 113/137/27 107/140/27 106/157/27
f 132/105/6 131/158/6 137/159/6 138/106/6
f 134/160/3 135/161/3 129/162/3 128/163/3
f 117/153/26 118/164/26 112/165/26 111/141/26
f 118/164/28 119/150/28 113/137/28 112/165/28
f 119/150/6 120/149/6 114/138/6 113/137/6
f 121/166/32 122/151/32 116/54/32 115/53/32
f 132/105/37 127/104/37 121/166/37 126/148/37
f 128/163/3 129/162/3 123/152/3 122/151/3
f 126/148/23 121/166/23 115/53/23 120/149/23
f 123/152/31 124/167/31 118/168/31 117/153/31
f 124/167/34 125/147/34 119/150/34 118/168/34
f 140/117/46 139/169/46 1/2/46 2/1/46
f 138/106/6 137/159/6 143/29/6 144/28/6
f 129/162/33 130/170/33 124/171/33 123/152/33
f 130/170/35 131/158/35 125/147/35 124/171/35
f 131/158/6 132/105/6 126/148/6 125/147/6
f 133/107/39 134/160/39 128/163/39 127/104/39
f 135/161/3 134/160/3 140/117/3 141/24/3
f 136/172/41 137/159/41 131/158/41 130/173/41
f 130/173/38 129/162/38 135/161/38 136/172/38
f 134/160/43 133/107/43 139/169/43 140/117/43
f 144/28/44 139/169/44 133/107/44 138/106/44
f 136/174/40 135/161/40 141/24/40 142/175/40
f 137/159/42 136/174/42 142/175/42 143/29/42
f 45/72/3 44/67/3 50/82/3 51/83/3
f 57/90/3 56/85/3 62/97/3 63/98/3
f 8/4/50 7/3/50 13/36/50 14/34/50
f 74/116/3 75/115/3 69/99/3 68/86/3
f 1/2/48 6/14/48 12/15/48 7/3/48
f 6/14/47 1/2/47 139/169/47 144/28/47
f 15/35/49 16/5/49 10/8/49 9/9/49
f 18/27/6 17/6/6 23/22/6 24/40/6
f 21/39/3 20/38/3 26/50/3 27/51/3
f 89/136/6 90/133/6 84/112/6 83/131/6
f 4/25/45 5/13/45 143/29/45 142/26/45
f 127/104/36 128/163/36 122/151/36 121/166/36
