# Blender v2.92.0 OBJ File: 'level.blend'
# www.blender.org
mtllib jumppad.mtl
v 1.000000 -0.052373 -1.000000
v 1.000000 0.052373 -1.000000
v 1.000000 -0.052373 1.000000
v 1.000000 0.052373 1.000000
v -1.000000 -0.052373 -1.000000
v -1.000000 0.052373 -1.000000
v -1.000000 -0.052373 1.000000
v -1.000000 0.052373 1.000000
vt 0.192910 0.169824
vt 0.196816 0.169824
vt 0.196816 0.173731
vt 0.192910 0.173731
vt 0.196816 0.177637
vt 0.192910 0.177637
vt 0.196816 0.181544
vt 0.192910 0.181544
vt 0.196816 0.185451
vt 0.192910 0.185451
vt 0.189003 0.177637
vt 0.189003 0.181544
vt 0.200723 0.177637
vt 0.200723 0.181544
vn 1.0000 0.0000 0.0000
vn 0.0000 0.0000 1.0000
vn -1.0000 0.0000 0.0000
vn 0.0000 0.0000 -1.0000
vn 0.0000 -1.0000 0.0000
vn 0.0000 1.0000 0.0000
usemtl None
s off
f 1/1/1 2/2/1 4/3/1 3/4/1
f 3/4/2 4/3/2 8/5/2 7/6/2
f 7/6/3 8/5/3 6/7/3 5/8/3
f 5/8/4 6/7/4 2/9/4 1/10/4
f 3/11/5 7/6/5 5/8/5 1/12/5
f 8/5/6 4/13/6 2/14/6 6/7/6
