# Blender v2.92.0 OBJ File: ''
# www.blender.org
mtllib bullet.mtl
v 0.000000 1.000000 1.000000
v 0.000000 1.000000 -1.000000
v -0.587785 0.809017 1.000000
v -0.587785 0.809017 -1.000000
v -0.951057 0.309017 1.000000
v -0.951057 0.309017 -1.000000
v -0.951056 -0.309017 1.000000
v -0.951056 -0.309017 -1.000000
v -0.587785 -0.809017 1.000000
v -0.587785 -0.809017 -1.000000
v 0.000000 -1.000000 1.000000
v 0.000000 -1.000000 -1.000000
v 0.587785 -0.809017 1.000000
v 0.587785 -0.809017 -1.000000
v 0.951056 -0.309017 1.000000
v 0.951056 -0.309017 -1.000000
v 0.951056 0.309017 1.000000
v 0.951056 0.309017 -1.000000
v 0.587785 0.809017 1.000000
v 0.587785 0.809017 -1.000000
v -0.000000 0.310156 2.011249
v -0.182305 0.250921 2.011249
v -0.294976 0.095844 2.011249
v -0.294976 -0.095843 2.011249
v -0.182305 -0.250921 2.011249
v -0.000000 -0.310156 2.011249
v 0.182305 -0.250921 2.011249
v 0.294976 -0.095843 2.011249
v 0.294976 0.095844 2.011249
v 0.182305 0.250922 2.011249
vt 0.601191 0.915751
vt 0.601191 0.935736
vt 0.597194 0.935736
vt 0.597194 0.915751
vt 0.593197 0.935736
vt 0.593197 0.915751
vt 0.589200 0.935736
vt 0.589200 0.915751
vt 0.585203 0.935736
vt 0.585203 0.915751
vt 0.581206 0.935736
vt 0.581206 0.915751
vt 0.577209 0.935736
vt 0.577209 0.915751
vt 0.573212 0.935736
vt 0.573212 0.915751
vt 0.569215 0.935736
vt 0.569215 0.915751
vt 0.576852 0.913519
vt 0.571213 0.915351
vt 0.565575 0.913519
vt 0.562090 0.908723
vt 0.562090 0.902794
vt 0.565575 0.897998
vt 0.571213 0.896165
vt 0.576852 0.897998
vt 0.580337 0.902794
vt 0.580337 0.908723
vt 0.565218 0.935736
vt 0.565218 0.915751
vt 0.561221 0.935736
vt 0.561221 0.915751
vt 0.565218 0.915751
vt 0.569215 0.915751
vt 0.591198 0.915351
vt 0.596837 0.913519
vt 0.600322 0.908723
vt 0.600322 0.902794
vt 0.596837 0.897998
vt 0.591198 0.896165
vt 0.585560 0.897998
vt 0.582075 0.902794
vt 0.582075 0.908723
vt 0.585560 0.913519
vt 0.573212 0.915751
vt 0.577209 0.915751
vt 0.581206 0.915751
vt 0.585203 0.915751
vt 0.589200 0.915751
vt 0.597194 0.915751
vt 0.601191 0.915751
vt 0.593197 0.915751
vt 0.561221 0.915751
vn -0.3090 0.9511 0.0000
vn -0.8090 0.5878 -0.0000
vn -1.0000 -0.0000 0.0000
vn -0.8090 -0.5878 0.0000
vn -0.3090 -0.9511 0.0000
vn 0.3090 -0.9511 0.0000
vn 0.8090 -0.5878 0.0000
vn 1.0000 0.0000 0.0000
vn -0.0000 -0.0000 -1.0000
vn 0.8090 0.5878 -0.0000
vn 0.3090 0.9511 -0.0000
vn 0.6787 0.4931 0.5443
vn 0.0000 0.0000 1.0000
vn 0.8389 0.0000 0.5443
vn 0.6787 -0.4931 0.5443
vn 0.2592 -0.7979 0.5443
vn -0.2592 -0.7979 0.5443
vn -0.6787 -0.4931 0.5443
vn -0.2592 0.7979 0.5443
vn -0.8389 -0.0000 0.5443
vn -0.6787 0.4931 0.5443
vn 0.2592 0.7979 0.5443
usemtl None
s off
f 1/1/1 2/2/1 4/3/1 3/4/1
f 3/4/2 4/3/2 6/5/2 5/6/2
f 5/6/3 6/5/3 8/7/3 7/8/3
f 7/8/4 8/7/4 10/9/4 9/10/4
f 9/10/5 10/9/5 12/11/5 11/12/5
f 11/12/6 12/11/6 14/13/6 13/14/6
f 13/14/7 14/13/7 16/15/7 15/16/7
f 15/16/8 16/15/8 18/17/8 17/18/8
f 4/19/9 2/20/9 20/21/9 18/22/9 16/23/9 14/24/9 12/25/9 10/26/9 8/27/9 6/28/9
f 17/18/10 18/17/10 20/29/10 19/30/10
f 19/30/11 20/29/11 2/31/11 1/32/11
f 17/18/12 19/30/12 30/33/12 29/34/12
f 21/35/13 22/36/13 23/37/13 24/38/13 25/39/13 26/40/13 27/41/13 28/42/13 29/43/13 30/44/13
f 15/16/14 17/18/14 29/34/14 28/45/14
f 13/14/15 15/16/15 28/45/15 27/46/15
f 11/12/16 13/14/16 27/46/16 26/47/16
f 9/10/17 11/12/17 26/47/17 25/48/17
f 7/8/18 9/10/18 25/48/18 24/49/18
f 1/1/19 3/4/19 22/50/19 21/51/19
f 5/6/20 7/8/20 24/49/20 23/52/20
f 3/4/21 5/6/21 23/52/21 22/50/21
f 19/30/22 1/32/22 21/53/22 30/33/22
