# Blender v2.92.0 OBJ File: ''
# www.blender.org
mtllib gun.mtl
v -0.331594 1.000000 0.289508
v -0.331594 -0.170017 0.289508
v -0.331594 1.000000 -0.289508
v -0.331594 -0.170017 -0.289508
v 0.331594 1.000000 0.289508
v 0.331594 -0.170017 0.289508
v 0.331594 1.000000 -0.289508
v 0.331594 -0.170017 -0.289508
v -0.331594 0.980771 1.409941
v -0.331594 0.980771 -0.590059
v -0.331594 1.559788 1.409941
v -0.331594 1.559788 -0.590059
v 0.331594 0.980771 1.409941
v 0.331594 0.980771 -0.590059
v 0.331594 1.559788 1.409941
v 0.331594 1.559788 -0.590059
v 0.097848 0.980771 -0.590059
v 0.097848 1.559788 1.409941
v 0.097848 1.559788 -0.590059
v 0.097848 0.980771 1.409941
v -0.116873 1.559788 -0.590059
v -0.116873 0.980771 1.409941
v -0.116873 0.980771 -0.590059
v -0.116873 1.559788 1.409941
v -0.331594 0.980771 -0.406862
v 0.331594 1.559788 -0.406862
v -0.331594 1.559788 -0.406862
v 0.331594 0.980771 -0.406862
v 0.097848 0.980771 -0.406862
v 0.097848 1.559788 -0.406862
v -0.116873 1.559788 -0.406862
v -0.116873 0.980771 -0.406862
v 0.097848 1.616770 -0.406862
v 0.097848 1.616770 -0.590059
v -0.116873 1.616770 -0.590059
v -0.116873 1.616770 -0.406862
v -0.000000 1.095761 1.368517
v -0.000000 1.095761 1.437390
v -0.096818 1.127219 1.368517
v -0.096818 1.127219 1.437390
v -0.156655 1.209577 1.368517
v -0.156655 1.209578 1.437390
v -0.156655 1.311378 1.368517
v -0.156655 1.311378 1.437390
v -0.096818 1.393736 1.368517
v -0.096818 1.393736 1.437390
v -0.000000 1.425194 1.368517
v -0.000000 1.425194 1.437390
v 0.096818 1.393736 1.368517
v 0.096818 1.393736 1.437390
v 0.156655 1.311378 1.368517
v 0.156655 1.311378 1.437390
v 0.156655 1.209577 1.368517
v 0.156655 1.209577 1.437390
v 0.096818 1.127219 1.368517
v 0.096818 1.127219 1.437390
v 0.043517 0.887743 0.530950
v 0.043517 1.010332 0.530950
v 0.043517 0.887743 0.653539
v 0.043517 1.010332 0.653539
v -0.043517 0.887743 0.530950
v -0.043517 1.010332 0.530950
v -0.043517 0.887743 0.653539
v -0.043517 1.010332 0.653539
v 0.043517 0.785914 0.647454
v 0.043517 0.839162 0.537034
v -0.043517 0.785914 0.647454
v -0.043517 0.839162 0.537034
v 0.043517 0.679331 0.590191
v 0.043517 0.772837 0.510916
v -0.043517 0.679331 0.590191
v -0.043517 0.772837 0.510916
v 0.043517 0.617180 0.513124
v 0.043517 0.729082 0.463065
v -0.043517 0.617180 0.513124
v -0.043517 0.729082 0.463065
v 0.043517 0.586922 0.444098
v 0.043517 0.704580 0.409680
v -0.043517 0.586922 0.444098
v -0.043517 0.704580 0.409680
v 0.043517 0.564783 0.360194
v 0.043517 0.687366 0.359050
v -0.043517 0.564783 0.360194
v -0.043517 0.687366 0.359050
v 0.043517 0.564174 0.294966
v 0.043517 0.686757 0.293822
v -0.043517 0.564174 0.294966
v -0.043517 0.686757 0.293822
v -0.014528 0.972365 0.373412
v -0.014528 1.030488 0.373412
v -0.013667 0.972365 0.327247
v -0.013667 1.030488 0.327247
v 0.015145 0.972365 0.374087
v 0.015145 1.030488 0.374087
v 0.016006 0.972365 0.327922
v 0.016006 1.030488 0.327922
v -0.013709 0.924085 0.329538
v -0.014485 0.949331 0.371121
v 0.015963 0.924085 0.330213
v 0.015187 0.949331 0.371796
v -0.014112 0.873551 0.351103
v -0.014668 0.917885 0.380957
v 0.015561 0.873551 0.351778
v 0.015004 0.917885 0.381632
v -0.014653 0.844084 0.380125
v -0.015004 0.897139 0.398977
v 0.015019 0.844084 0.380800
v 0.014668 0.897139 0.399652
v -0.015138 0.829737 0.406119
v -0.015379 0.885522 0.419081
v 0.014535 0.829737 0.406795
v 0.014293 0.885522 0.419756
v -0.015727 0.819240 0.437717
v -0.015735 0.877360 0.438147
v 0.013945 0.819240 0.438392
v 0.013937 0.877360 0.438823
v -0.016185 0.818952 0.462280
v -0.016193 0.877072 0.462711
v 0.013487 0.818952 0.462956
v 0.013479 0.877072 0.463386
vt 0.687051 0.933594
vt 0.693966 0.933594
vt 0.693966 0.940509
vt 0.687051 0.940509
vt 0.680136 0.940509
vt 0.687051 0.947423
vt 0.680136 0.947423
vt 0.680136 0.919764
vt 0.687051 0.919764
vt 0.687051 0.926679
vt 0.680136 0.926679
vt 0.673221 0.933594
vt 0.680136 0.933594
vt 0.673221 0.940509
vt 0.691529 0.933594
vt 0.693966 0.933594
vt 0.693966 0.940509
vt 0.691529 0.940509
vt 0.680770 0.944986
vt 0.687051 0.944986
vt 0.687051 0.947423
vt 0.680770 0.947423
vt 0.680770 0.919764
vt 0.687051 0.919764
vt 0.687051 0.926679
vt 0.680770 0.926679
vt 0.677897 0.933594
vt 0.680136 0.933594
vt 0.680136 0.940509
vt 0.677897 0.940509
vt 0.680770 0.933594
vt 0.687051 0.933594
vt 0.687051 0.940509
vt 0.680770 0.940509
vt 0.680770 0.931355
vt 0.687051 0.931355
vt 0.687051 0.929116
vt 0.680770 0.929116
vt 0.673221 0.933594
vt 0.675659 0.933594
vt 0.675659 0.940509
vt 0.673221 0.940509
vt 0.680770 0.942747
vt 0.687051 0.942747
vt 0.689290 0.933594
vt 0.689290 0.940509
vt 0.680136 0.929116
vt 0.680136 0.931355
vt 0.680136 0.942747
vt 0.677897 0.940509
vt 0.675659 0.940509
vt 0.680136 0.926679
vt 0.680136 0.919764
vt 0.680136 0.944986
vt 0.680136 0.947423
vt 0.680136 0.942747
vt 0.680770 0.942747
vt 0.680770 0.944986
vt 0.680136 0.944986
vt 0.697423 0.933594
vt 0.697423 0.947423
vt 0.694658 0.947423
vt 0.694658 0.933594
vt 0.691892 0.947423
vt 0.691892 0.933594
vt 0.689126 0.947423
vt 0.689126 0.933594
vt 0.686360 0.947423
vt 0.686360 0.933594
vt 0.683594 0.947423
vt 0.683594 0.933594
vt 0.680828 0.947423
vt 0.680828 0.933594
vt 0.678062 0.947423
vt 0.678062 0.933594
vt 0.675296 0.947423
vt 0.675296 0.933594
vt 0.680581 0.932049
vt 0.676679 0.933317
vt 0.672777 0.932049
vt 0.670365 0.928730
vt 0.670365 0.924628
vt 0.672777 0.921308
vt 0.676679 0.920041
vt 0.680581 0.921308
vt 0.682992 0.924628
vt 0.682992 0.928730
vt 0.672530 0.947423
vt 0.672530 0.933594
vt 0.669764 0.947423
vt 0.669764 0.933594
vt 0.690509 0.933317
vt 0.694410 0.932049
vt 0.696822 0.928730
vt 0.696822 0.924628
vt 0.694410 0.921308
vt 0.690509 0.920041
vt 0.686607 0.921308
vt 0.684195 0.924628
vt 0.684195 0.928730
vt 0.686607 0.932049
vt 0.680136 0.919764
vt 0.687051 0.919764
vt 0.687051 0.926679
vt 0.680136 0.926679
vt 0.687051 0.933594
vt 0.680136 0.933594
vt 0.687051 0.940509
vt 0.680136 0.940509
vt 0.687051 0.947423
vt 0.680136 0.947423
vt 0.680136 0.926679
vt 0.680136 0.919764
vt 0.693966 0.933594
vt 0.693966 0.940509
vt 0.680136 0.933594
vt 0.680136 0.940509
vt 0.680136 0.940509
vt 0.680136 0.933594
vt 0.680136 0.947423
vt 0.680136 0.947423
vt 0.680136 0.947423
vt 0.680136 0.940509
vt 0.680136 0.926679
vt 0.680136 0.919764
vt 0.680136 0.926679
vt 0.680136 0.933594
vt 0.680136 0.933594
vt 0.680136 0.926679
vt 0.680136 0.919764
vt 0.680136 0.940509
vt 0.680136 0.947423
vt 0.680136 0.947423
vt 0.680136 0.940509
vt 0.680136 0.919764
vt 0.680136 0.933594
vt 0.680136 0.940509
vt 0.680136 0.933594
vt 0.680136 0.926679
vt 0.680136 0.919764
vt 0.673221 0.933594
vt 0.673221 0.940509
vt 0.680136 0.926679
vt 0.680136 0.919764
vt 0.680136 0.947423
vt 0.680136 0.919764
vt 0.687051 0.919764
vt 0.687051 0.926679
vt 0.680136 0.926679
vt 0.687051 0.933594
vt 0.680136 0.933594
vt 0.687051 0.940509
vt 0.680136 0.940509
vt 0.687051 0.947423
vt 0.680136 0.947423
vt 0.680136 0.926679
vt 0.680136 0.919764
vt 0.693966 0.933594
vt 0.693966 0.940509
vt 0.680136 0.933594
vt 0.680136 0.940509
vt 0.680136 0.940509
vt 0.680136 0.933594
vt 0.680136 0.947423
vt 0.680136 0.947423
vt 0.680136 0.947423
vt 0.680136 0.940509
vt 0.680136 0.926679
vt 0.680136 0.919764
vt 0.680136 0.926679
vt 0.680136 0.933594
vt 0.680136 0.933594
vt 0.680136 0.926679
vt 0.680136 0.919764
vt 0.680136 0.940509
vt 0.680136 0.947423
vt 0.680136 0.947423
vt 0.680136 0.940509
vt 0.680136 0.919764
vt 0.680136 0.933594
vt 0.680136 0.940509
vt 0.680136 0.933594
vt 0.680136 0.926679
vt 0.680136 0.919764
vt 0.673221 0.933594
vt 0.673221 0.940509
vt 0.680136 0.926679
vt 0.680136 0.919764
vt 0.680136 0.947423
vn 0.0000 1.0000 0.0000
vn 0.0000 0.0000 -1.0000
vn 1.0000 0.0000 0.0000
vn 0.0000 -1.0000 0.0000
vn -1.0000 0.0000 0.0000
vn 0.0000 0.0000 1.0000
vn -0.3090 -0.9511 0.0000
vn -0.8090 -0.5878 0.0000
vn -0.8090 0.5878 0.0000
vn -0.3090 0.9511 0.0000
vn 0.3090 0.9511 0.0000
vn 0.8090 0.5878 0.0000
vn 0.8090 -0.5878 0.0000
vn 0.3090 -0.9511 0.0000
vn 0.0000 -0.1243 -0.9922
vn 0.0000 -0.0596 0.9982
vn 0.0000 0.7380 -0.6748
vn 0.0000 0.3664 -0.9305
vn 0.0000 -0.4733 0.8809
vn 0.0000 -0.9159 0.4015
vn 0.0000 -0.7784 0.6278
vn 0.0000 0.9468 -0.3219
vn 0.0000 0.9088 -0.4171
vn 0.0000 -0.9669 0.2551
vn 0.0000 -0.0093 -1.0000
vn 0.0000 1.0000 -0.0093
vn 0.0000 -1.0000 0.0093
vn -0.9998 0.0000 -0.0186
vn 0.0227 0.0000 -0.9997
vn 0.9998 0.0000 0.0186
vn -0.0228 0.0000 0.9997
vn -0.0226 -0.0990 0.9948
vn 0.0227 -0.0474 -0.9986
vn -0.0172 0.6558 0.7547
vn -0.0217 0.2986 0.9541
vn 0.0209 -0.3925 -0.9195
vn 0.0110 -0.8756 -0.4830
vn 0.0162 -0.7018 -0.7122
vn -0.0090 0.9193 0.3934
vn -0.0114 0.8659 0.5001
vn 0.0072 -0.9490 -0.3151
vn -0.0227 -0.0074 0.9997
vn -0.0003 0.9999 0.0117
vn 0.0003 -0.9999 -0.0117
usemtl Material
s off
f 1/1/1 5/2/1 7/3/1 3/4/1
f 4/5/2 3/4/2 7/6/2 8/7/2
f 8/8/3 7/9/3 5/10/3 6/11/3
f 6/12/4 2/13/4 4/5/4 8/14/4
f 2/13/5 1/1/5 3/4/5 4/5/5
f 6/11/6 5/10/6 1/1/6 2/13/6
f 20/15/6 13/16/6 15/17/6 18/18/6
f 30/19/1 18/20/1 15/21/1 26/22/1
f 26/23/3 15/24/3 13/25/3 28/26/3
f 23/27/2 10/28/2 12/29/2 21/30/2
f 25/31/5 9/32/5 11/33/5 27/34/5
f 32/35/4 22/36/4 9/32/4 25/31/4
f 28/26/4 13/25/4 20/37/4 29/38/4
f 14/39/2 17/40/2 19/41/2 16/42/2
f 31/43/1 24/44/1 18/20/1 30/19/1
f 22/45/6 20/15/6 18/18/6 24/46/6
f 9/32/6 22/45/6 24/46/6 11/33/6
f 27/34/1 11/33/1 24/44/1 31/43/1
f 29/38/4 20/37/4 22/36/4 32/35/4
f 17/40/2 23/27/2 21/30/2 19/41/2
f 17/47/4 29/38/4 32/35/4 23/48/4
f 12/29/1 27/34/1 31/43/1 21/49/1
f 19/41/2 21/30/2 35/50/2 34/51/2
f 14/52/4 28/26/4 29/38/4 17/47/4
f 23/48/4 32/35/4 25/31/4 10/28/4
f 10/28/5 25/31/5 27/34/5 12/29/5
f 16/53/3 26/23/3 28/26/3 14/52/3
f 19/54/1 30/19/1 26/22/1 16/55/1
f 35/56/1 36/57/1 33/58/1 34/59/1
f 30/19/3 19/54/3 34/59/3 33/58/3
f 31/43/6 30/19/6 33/58/6 36/57/6
f 21/49/5 31/43/5 36/57/5 35/56/5
f 37/60/7 38/61/7 40/62/7 39/63/7
f 39/63/8 40/62/8 42/64/8 41/65/8
f 41/65/5 42/64/5 44/66/5 43/67/5
f 43/67/9 44/66/9 46/68/9 45/69/9
f 45/69/10 46/68/10 48/70/10 47/71/10
f 47/71/11 48/70/11 50/72/11 49/73/11
f 49/73/12 50/72/12 52/74/12 51/75/12
f 51/75/3 52/74/3 54/76/3 53/77/3
f 40/78/6 38/79/6 56/80/6 54/81/6 52/82/6 50/83/6 48/84/6 46/85/6 44/86/6 42/87/6
f 53/77/13 54/76/13 56/88/13 55/89/13
f 55/89/14 56/88/14 38/90/14 37/91/14
f 37/92/2 39/93/2 41/94/2 43/95/2 45/96/2 47/97/2 49/98/2 51/99/2 53/100/2 55/101/2
f 57/102/3 58/103/3 60/104/3 59/105/3
f 59/105/6 60/104/6 64/106/6 63/107/6
f 63/107/5 64/106/5 62/108/5 61/109/5
f 61/109/2 62/108/2 58/110/2 57/111/2
f 57/102/3 59/105/3 65/112/3 66/113/3
f 64/106/1 60/114/1 58/115/1 62/108/1
f 67/116/5 68/117/5 72/118/5 71/119/5
f 63/107/5 61/109/5 68/117/5 67/116/5
f 61/109/15 57/111/15 66/120/15 68/117/15
f 59/105/16 63/107/16 67/116/16 65/112/16
f 72/118/17 70/121/17 74/122/17 76/123/17
f 66/113/3 65/112/3 69/124/3 70/125/3
f 68/117/18 66/120/18 70/121/18 72/118/18
f 65/112/19 67/116/19 71/119/19 69/124/19
f 73/126/20 75/127/20 79/128/20 77/129/20
f 69/124/21 71/119/21 75/127/21 73/126/21
f 71/119/5 72/118/5 76/123/5 75/127/5
f 70/125/3 69/124/3 73/126/3 74/130/3
f 80/131/22 78/132/22 82/133/22 84/134/22
f 75/127/5 76/123/5 80/131/5 79/128/5
f 74/130/3 73/126/3 77/129/3 78/135/3
f 76/123/23 74/122/23 78/132/23 80/131/23
f 83/136/5 84/134/5 88/137/5 87/138/5
f 77/129/24 79/128/24 83/136/24 81/139/24
f 79/128/5 80/131/5 84/134/5 83/136/5
f 78/135/3 77/129/3 81/139/3 82/140/3
f 85/141/25 87/138/25 88/137/25 86/142/25
f 82/140/3 81/139/3 85/143/3 86/144/3
f 84/134/26 82/133/26 86/145/26 88/137/26
f 81/139/27 83/136/27 87/138/27 85/143/27
f 89/146/28 90/147/28 92/148/28 91/149/28
f 91/149/29 92/148/29 96/150/29 95/151/29
f 95/151/30 96/150/30 94/152/30 93/153/30
f 93/153/31 94/152/31 90/154/31 89/155/31
f 89/146/28 91/149/28 97/156/28 98/157/28
f 96/150/1 92/158/1 90/159/1 94/152/1
f 99/160/30 100/161/30 104/162/30 103/163/30
f 95/151/30 93/153/30 100/161/30 99/160/30
f 93/153/32 89/155/32 98/164/32 100/161/32
f 91/149/33 95/151/33 99/160/33 97/156/33
f 104/162/34 102/165/34 106/166/34 108/167/34
f 98/157/28 97/156/28 101/168/28 102/169/28
f 100/161/35 98/164/35 102/165/35 104/162/35
f 97/156/36 99/160/36 103/163/36 101/168/36
f 105/170/37 107/171/37 111/172/37 109/173/37
f 101/168/38 103/163/38 107/171/38 105/170/38
f 103/163/30 104/162/30 108/167/30 107/171/30
f 102/169/28 101/168/28 105/170/28 106/174/28
f 112/175/39 110/176/39 114/177/39 116/178/39
f 107/171/30 108/167/30 112/175/30 111/172/30
f 106/174/28 105/170/28 109/173/28 110/179/28
f 108/167/40 106/166/40 110/176/40 112/175/40
f 115/180/30 116/178/30 120/181/30 119/182/30
f 109/173/41 111/172/41 115/180/41 113/183/41
f 111/172/30 112/175/30 116/178/30 115/180/30
f 110/179/28 109/173/28 113/183/28 114/184/28
f 117/185/42 119/182/42 120/181/42 118/186/42
f 114/184/28 113/183/28 117/187/28 118/188/28
f 116/178/43 114/177/43 118/189/43 120/181/43
f 113/183/44 115/180/44 119/182/44 117/187/44
