# Blender v2.92.0 OBJ File: ''
# www.blender.org
mtllib level.mtl
v 1.000000 0.000000 -1.000000
v -1.000000 0.000000 -1.000000
v 1.000000 0.000000 1.000000
v -1.000000 0.000000 1.000000
v 1.000000 -1.173545 -0.947781
v -1.000000 -1.173545 -0.947781
v 1.000000 0.904262 -0.947781
v 1.000000 0.904262 -1.000000
v -1.000000 0.904262 -1.000000
v -1.000000 0.904262 -0.947781
v -0.945119 0.000000 -1.000000
v -0.945119 0.000000 1.000000
v -0.945119 -1.173545 -0.947781
v -0.945119 0.904262 -1.000000
v -0.945119 0.904262 -0.947781
v -1.000000 0.904262 9.653986
v -1.000000 -1.173545 9.653986
v -0.945119 -1.173545 9.653986
v -0.945119 0.904262 9.653986
v 0.932343 0.000000 1.000000
v 0.932343 -1.173545 -0.947781
v 0.932343 0.904262 -0.947781
v 0.932343 0.000000 -1.000000
v 0.932343 0.904262 -1.000000
v 0.932343 -1.173545 9.654074
v 1.000000 -1.173545 9.654074
v 0.932343 0.904262 9.654074
v 1.000000 0.904262 9.654074
v 1.000000 -0.158517 9.947644
v -0.945119 0.000000 1.000000
v 0.932343 0.000000 1.000000
v -1.000000 -2.158517 9.947644
v 1.000000 -0.158517 -1.000000
v 1.000000 -2.158517 -1.000000
v -1.000000 -0.158517 7.947644
v 1.000000 -2.158517 9.947644
v 1.000000 -2.158517 7.947644
v -1.000000 -2.158517 1.000000
v 1.000000 -0.158517 7.947644
v 1.000000 -0.158517 1.000000
v -1.000000 -0.158517 9.947644
v 1.000000 -2.158517 1.000000
v -1.000000 -0.158517 -1.000000
v -1.000000 -2.158517 -1.000000
v -1.000000 -2.158517 7.947644
v -1.000000 -0.158517 1.000000
v 0.932343 0.904262 9.585374
v 1.000000 0.904262 9.585374
v 1.000000 -1.173545 9.585374
v 0.932343 -1.173545 9.585374
v -0.966731 -1.173545 9.654074
v -0.966731 0.904262 9.654074
v -0.966731 0.904262 9.585374
v -0.966731 -1.173545 9.585374
vt 0.000000 0.117379
vt 0.033829 0.117379
vt 0.033829 0.117379
vt 0.000000 0.117379
vt 0.972559 0.000000
vt 1.000000 0.000000
vt 1.000000 0.117379
vt 0.972559 0.117379
vt 0.125000 0.500000
vt 0.375000 0.500000
vt 0.375000 0.750000
vt 0.125000 0.750000
vt 0.625000 0.500000
vt 0.875000 0.500000
vt 0.875000 0.750000
vt 0.625000 0.750000
vt 0.375000 0.500000
vt 0.625000 0.500000
vt 0.625000 0.750000
vt 0.375000 0.750000
vt 0.033829 0.000000
vt 0.033829 0.117379
vt 0.000000 0.000000
vt 0.000000 0.000000
vt 0.000000 0.000000
vt 0.000000 0.000000
vt 1.000000 0.117379
vt 0.972559 0.117379
vt 0.972559 0.117379
vt 1.000000 0.117379
vt 0.375000 0.250000
vt 0.625000 0.250000
vt 0.625000 0.500000
vt 0.375000 0.500000
vt 0.972559 0.117379
vt 0.000000 0.000000
vt 0.000000 0.117379
vt 0.375000 0.000000
vt 0.625000 0.000000
vt 0.625000 0.250000
vt 0.375000 0.250000
vt 0.033829 0.117379
vt 0.033829 0.117379
vt 0.000000 0.117379
vt 0.033829 0.117379
vt 0.000000 0.117379
vt 0.000000 0.000000
vt 0.000000 0.000000
vt 0.000000 0.000000
vt 0.000000 0.000000
vt 0.033829 0.117379
vt 0.033829 0.117379
vt 0.375000 0.000000
vt 0.625000 0.000000
vt 0.625000 0.250000
vt 0.375000 0.250000
vt 0.375000 0.250000
vt 0.625000 0.250000
vt 0.625000 0.500000
vt 0.375000 0.500000
vt 0.375000 0.500000
vt 0.625000 0.500000
vt 0.625000 0.750000
vt 0.375000 0.750000
vt 0.375000 0.750000
vt 0.625000 0.750000
vt 0.625000 1.000000
vt 0.375000 1.000000
vt 0.125000 0.500000
vt 0.375000 0.500000
vt 0.375000 0.750000
vt 0.125000 0.750000
vt 0.000000 0.000000
vt 0.000000 0.000000
vt 0.625000 0.500000
vt 0.875000 0.500000
vt 0.875000 0.750000
vt 0.625000 0.750000
vt 0.375000 0.750000
vt 0.625000 0.750000
vt 0.625000 1.000000
vt 0.375000 1.000000
vt 0.033829 0.117379
vt 0.033829 0.117379
vn 0.0000 1.0000 0.0000
vn 0.0000 0.0000 1.0000
vn 1.0000 0.0000 0.0000
vn -1.0000 0.0000 0.0000
vn 0.0000 0.0000 -1.0000
vn 0.0000 -1.0000 0.0000
usemtl None
s off
f 48/1/1 47/2/1 27/3/1 28/4/1
f 14/5/1 9/6/1 10/7/1 15/8/1
f 36/9/2 29/10/2 41/11/2 32/12/2
f 37/13/3 39/14/3 29/15/3 36/16/3
f 41/17/1 29/18/1 39/19/1 35/20/1
f 24/21/1 14/5/1 15/8/1 22/22/1
f 10/23/4 6/24/4 17/25/4 16/26/4
f 17/27/2 18/28/2 19/29/2 16/30/2
f 15/8/1 10/7/1 16/30/1 19/29/1
f 45/31/5 35/32/5 39/33/5 37/34/5
f 13/35/3 15/8/3 19/29/3 18/28/3
f 8/36/1 24/21/1 22/22/1 7/37/1
f 36/38/6 32/39/6 45/40/6 37/41/6
f 13/35/2 21/42/2 22/22/2 15/8/2
f 25/43/2 26/44/2 28/4/2 27/3/2
f 50/45/6 49/46/6 26/44/6 25/43/6
f 49/47/3 48/48/3 28/49/3 26/50/3
f 25/43/2 27/3/2 52/51/2 51/52/2
f 42/53/6 38/54/6 44/55/6 34/56/6
f 44/57/5 43/58/5 33/59/5 34/60/5
f 46/61/1 40/62/1 33/63/1 43/64/1
f 22/22/4 21/42/4 50/45/4 47/2/4
f 38/65/4 46/66/4 43/67/4 44/68/4
f 42/69/2 40/70/2 46/71/2 38/72/2
f 5/73/3 7/74/3 48/48/3 49/47/3
f 34/75/3 33/76/3 40/77/3 42/78/3
f 32/79/4 41/80/4 35/81/4 45/82/4
f 7/37/1 22/22/1 47/2/1 48/1/1
f 53/83/4 54/84/4 51/52/4 52/51/4
f 50/45/6 25/43/6 51/52/6 54/84/6
f 27/3/1 47/2/1 53/83/1 52/51/1
f 47/2/5 50/45/5 54/84/5 53/83/5
l 6 4
l 20 3
l 3 5
l 1 8
l 9 2
l 4 12
l 11 14
l 23 24
l 31 20
l 12 30
